<svg width="42" height="42" fill="none" xmlns="http://www.w3.org/2000/svg"><path d="M13.551 2.928h14.22A.235.235 0 0 0 28 2.652l-.468-2.46A.242.242 0 0 0 27.303 0H14.02a.242.242 0 0 0-.228.192l-.468 2.46a.235.235 0 0 0 .228.276ZM35.103 42H19.455a.24.24 0 0 1-.24-.24V30.516a.24.24 0 0 1 .24-.24h2.46a.24.24 0 0 1 .24.24v8.316c0 .132.108.24.24.24h9.18a.235.235 0 0 0 .228-.276l-5.592-29.82a.242.242 0 0 0-.228-.192h-3.66a.24.24 0 0 1-.24-.24V6.096a.24.24 0 0 1 .24-.24h6.096c.108 0 .204.084.228.192l6.684 35.676a.235.235 0 0 1-.228.276ZM16.06 42H6.23a.235.235 0 0 1-.228-.276l6.684-35.676a.242.242 0 0 1 .228-.192h6.072a.24.24 0 0 1 .24.24v2.46a.24.24 0 0 1-.24.24h-3.636a.242.242 0 0 0-.228.192L9.52 38.796a.235.235 0 0 0 .228.276h6.312a.24.24 0 0 1 .24.24v2.448a.24.24 0 0 1-.24.24Z"/></svg>