<svg width="52" height="43" fill="none" xmlns="http://www.w3.org/2000/svg"><path d="M7.551 2.928h14.22A.235.235 0 0 0 22 2.652l-.468-2.46A.242.242 0 0 0 21.303 0H8.02a.242.242 0 0 0-.228.192l-.468 2.46a.235.235 0 0 0 .228.276ZM29.103 42H13.455a.24.24 0 0 1-.24-.24V30.516a.24.24 0 0 1 .24-.24h2.46a.24.24 0 0 1 .24.24v8.316c0 .132.108.24.24.24h9.18a.235.235 0 0 0 .228-.276l-5.592-29.82a.242.242 0 0 0-.228-.192h-3.66a.24.24 0 0 1-.24-.24V6.096a.24.24 0 0 1 .24-.24h6.096c.108 0 .204.084.228.192l6.684 35.676a.235.235 0 0 1-.228.276ZM10.06 42H.23a.235.235 0 0 1-.228-.276L6.687 6.048a.242.242 0 0 1 .228-.192h6.072a.24.24 0 0 1 .24.24v2.46a.24.24 0 0 1-.24.24H9.351a.242.242 0 0 0-.228.192L3.52 38.796a.235.235 0 0 0 .228.276h6.312a.24.24 0 0 1 .24.24v2.448a.24.24 0 0 1-.24.24ZM33.627 25.308c-.696 0-1.104-.42-1.104-1.14v-3.156c0-.72.408-1.14 1.104-1.14.696 0 1.104.42 1.104 1.14v.6h-.696v-.564c0-.372-.144-.54-.396-.54s-.408.168-.408.54v3.084c0 .372.144.54.408.54s.396-.168.396-.54v-.564h.696v.6c0 .72-.396 1.14-1.104 1.14ZM37.18 25.248l-.169-1.356h-.78l-.168 1.356h-.708l.816-5.316h.924l.804 5.316h-.72Zm-.457-3.54a26.996 26.996 0 0 1-.096-1.032h-.012s-.048.66-.096 1.032l-.192 1.596h.6l-.204-1.596ZM40.18 25.248V23.46c0-.336-.145-.54-.433-.54h-.396v2.34h-.696v-5.316h1.092c.804 0 1.128.492 1.128 1.188v.648c0 .372-.192.672-.444.804.288.12.444.468.444.876v1.788h-.696Zm0-4.128c0-.336-.145-.54-.433-.54h-.396v1.74h.396c.288 0 .432-.216.432-.54v-.66ZM41.943 25.248v-5.316h.696v4.68h1.044v.624h-1.74v.012ZM45.495 25.308c-.696 0-1.14-.42-1.14-1.14v-3.156c0-.72.444-1.14 1.14-1.14s1.14.42 1.14 1.14v3.156c.012.72-.432 1.14-1.14 1.14Zm.444-4.26c0-.372-.18-.54-.444-.54s-.444.168-.444.54v3.084c0 .372.18.54.444.54s.444-.168.444-.54v-3.084ZM48.64 25.308c-.685 0-1.14-.396-1.14-1.14v-.6h.695v.564c0 .372.204.54.444.54.324 0 .492-.216.492-.612 0-.336-.06-.552-.324-.828l-.792-.852c-.372-.396-.48-.744-.48-1.26 0-.72.348-1.248 1.128-1.248.72 0 1.128.42 1.128 1.14v.6h-.696v-.564c0-.372-.168-.54-.432-.54-.288 0-.444.24-.444.612 0 .336.06.552.324.828l.792.852c.372.396.48.744.48 1.26 0 .72-.384 1.248-1.176 1.248ZM34.36 33.624l-.169-1.356h-.78l-.168 1.356h-.708l.816-5.316h.924l.804 5.316h-.72Zm-.457-3.54c-.048-.384-.096-1.032-.096-1.032h-.012s-.048.66-.096 1.032l-.192 1.596h.6l-.204-1.596ZM33.423 27.6h.756l.048.348h-.864l.06-.348ZM35.835 33.624v-5.316h.696v4.68h1.044v.624h-1.74v.012ZM39.447 33.624h-.804l-.864-5.316h.696l.468 3.324c.06.384.096 1.032.096 1.032h.012s.036-.66.096-1.032l.468-3.324h.696l-.864 5.316ZM42.46 33.624l-.169-1.356h-.78l-.168 1.356h-.708l.816-5.316h.924l.804 5.316h-.72Zm-.457-3.54a26.996 26.996 0 0 1-.096-1.032h-.012s-.048.66-.096 1.032l-.192 1.596h.6l-.204-1.596ZM45.471 33.624v-1.788c0-.336-.144-.54-.432-.54h-.396v2.34h-.696V28.32h1.092c.804 0 1.128.492 1.128 1.188v.648c0 .372-.192.672-.444.804.288.12.444.468.444.876v1.788h-.696Zm0-4.128c0-.336-.144-.54-.432-.54h-.396v1.74h.396c.288 0 .432-.216.432-.54v-.66ZM47.223 33.624v-5.316h1.74v.648H47.92v1.608h.924v.648h-.924V33h1.044v.624h-1.74ZM49.551 33.624v-.6l1.428-4.068h-1.356v-.648h2.088v.636L50.271 33h1.512v.624h-2.232ZM33.675 41.94h-1.152v-5.316h1.152c.804 0 1.128.456 1.128 1.152v3c0 .708-.324 1.164-1.128 1.164Zm.432-4.128c0-.336-.144-.552-.432-.552h-.444v4.044h.444c.288 0 .432-.216.432-.552v-2.94ZM35.86 41.94v-5.316h1.74v.648h-1.045v1.608h.924v.648h-.924v1.788H37.6v.624h-1.74ZM39.447 42c-.684 0-1.14-.396-1.14-1.14v-.6h.696v.564c0 .372.204.552.444.552.324 0 .492-.216.492-.612 0-.336-.06-.552-.324-.828l-.792-.852c-.372-.396-.48-.744-.48-1.26 0-.72.348-1.248 1.128-1.248.72 0 1.128.42 1.128 1.14v.6h-.696v-.564c0-.372-.168-.54-.432-.54-.288 0-.444.24-.444.612 0 .336.06.552.324.828l.792.852c.372.396.48.744.48 1.26 0 .708-.384 1.236-1.176 1.236ZM41.583 41.94v-5.316h.696v5.316h-.696ZM45.207 41.94l-.108-.3c-.12.216-.396.372-.72.372-.672 0-1.032-.42-1.032-1.14v-3.156c0-.72.42-1.14 1.116-1.14.696 0 1.104.42 1.104 1.14v.6h-.696v-.564c0-.372-.144-.54-.408-.54s-.42.168-.42.54v3.084c0 .372.144.54.408.54s.42-.168.42-.54v-.984h-.42v-.612h1.116v2.712h-.36v-.012ZM48.243 41.94l-1.08-3.996h-.012s.084.624.084 1.14v2.856h-.648v-5.316h.78l1.08 3.996h.012s-.084-.648-.084-1.14v-2.856h.648v5.316h-.78Z" fill="#000"/></svg>